<svg width="30" height="18" viewBox="0 0 30 18" fill="none" xmlns="http://www.w3.org/2000/svg">
<path d="M20.2585 17.6598C19.8157 17.2062 19.8157 16.4639 20.2585 16.0103L25.8941 10.2371L1.5 10.2371C0.855932 10.2371 0.372879 9.70103 0.372879 9.08247L0.372879 8.95876C0.372879 8.29897 0.896186 7.80412 1.5 7.80412L25.8941 7.80412L20.2585 1.98969C19.8157 1.53608 19.8157 0.793814 20.2585 0.340206C20.7013 -0.113402 21.4258 -0.113402 21.8686 0.340206L29.7585 8.42268C30.0805 8.75258 30.0805 9.24742 29.7585 9.57732L21.8686 17.6598C21.4258 18.1134 20.7013 18.1134 20.2585 17.6598Z" fill="black"/>
</svg>
