<svg width="36" height="14" viewBox="0 0 36 14" fill="none" xmlns="http://www.w3.org/2000/svg">
<path d="M28.1087 13.7354C27.75 13.3826 27.75 12.8053 28.1087 12.4525L32.6739 7.9622L1 7.9622C0.478261 7.9622 0.0869557 7.54525 0.0869557 7.06415L0.0869557 6.96793C0.0869557 6.45475 0.510869 6.06987 1 6.06987L32.6739 6.06987L28.1087 1.54754C27.75 1.19473 27.75 0.617411 28.1087 0.264604C28.4674 -0.0882019 29.0543 -0.0882019 29.413 0.264605L35.8043 6.55097C36.0652 6.80756 36.0652 7.19244 35.8043 7.44903L29.413 13.7354C29.0543 14.0882 28.4674 14.0882 28.1087 13.7354Z" fill="black"/>
</svg>
