<svg width="22" height="27" viewBox="0 0 22 27" fill="none" xmlns="http://www.w3.org/2000/svg">
<path d="M9.89127 15.8638L7.76728 13.794C7.33778 13.3754 6.62898 13.3754 6.19948 13.794C5.76638 14.216 5.76638 14.9177 6.19948 15.3398L10.2161 19.2539C10.4327 19.4649 10.7185 19.5678 11 19.5678C11.2813 19.5678 11.5671 19.465 11.7836 19.2542C11.7837 19.2541 11.7838 19.254 11.7839 19.2539L15.7999 15.3674L15.8005 15.3668C16.2336 14.9447 16.2336 14.243 15.8005 13.821C15.371 13.4024 14.6622 13.4024 14.2327 13.821L12.1087 15.8907V1.87975C12.1087 1.24455 11.5975 0.792945 11 0.792945C10.3971 0.792945 9.89127 1.27673 9.89127 1.87975V15.8638ZM20.1413 19.6223C19.5384 19.6223 19.0325 20.1061 19.0325 20.7091V24.0763H2.96745V20.7091C2.96745 20.1061 2.46158 19.6223 1.85873 19.6223C1.25587 19.6223 0.75 20.1061 0.75 20.7091V25.1631C0.75 25.7662 1.25587 26.2499 1.85873 26.2499H20.1413C20.7441 26.2499 21.25 25.7662 21.25 25.1631V20.7091C21.25 20.1061 20.7441 19.6223 20.1413 19.6223Z" fill="black" stroke="black" stroke-width="0.5"/>
</svg>
